# xmcd
#
# Track frame offsets:
#	182
#	13500
#	27860
#	40385
#	53855
#	69785
#	83300
#	98742
#	109847
#	122077
#	139372
#	150870
#	170987
#	183565
#	196107
#	209365
#	224717
#	237952
#	258307
#	270832
#
# Disc length: 3828 seconds
#
# Revision: 1
# Processed by: cddbd v1.5.2PL0 Copyright (c) Steve Scherf et al.
# Submitted via: EasyCDDAExtractor 16.0.9.1
#
DISCID=100ef214
DTITLE=Percy Sledge - N-013 Percy Sledge  When A Man Loves A Woman
DYEAR=1900
DGENRE=Soul
TTITLE0=When A Man Loves A Woman
TTITLE1=Warm And Tender Love (a.k.a. Wrap Me In Your Warm And Tender Love)
TTITLE2=It Tears Me Up
TTITLE3=Take Time To Know Her
TTITLE4=Just Out Of Reach (Of My Two Empty Arms)
TTITLE5=My Special Prayer
TTITLE6=Out Of Left Field
TTITLE7=Baby, Help Me
TTITLE8=Sudden Stop
TTITLE9=Try A Little Tenderness
TTITLE10=(Sittin' On) The Dock Of The Bay
TTITLE11=You Send Me
TTITLE12=Behind Closed Doors
TTITLE13=Cover Me
TTITLE14=You're All Around Me
TTITLE15=Walkin' In The Sun
TTITLE16=I Believe In You
TTITLE17=The Good Love
TTITLE18=Dark End Of The Street
TTITLE19=Make It Good And Make It Last
EXTD=
EXTT0=
EXTT1=
EXTT2=
EXTT3=
EXTT4=
EXTT5=
EXTT6=
EXTT7=
EXTT8=
EXTT9=
EXTT10=
EXTT11=
EXTT12=
EXTT13=
EXTT14=
EXTT15=
EXTT16=
EXTT17=
EXTT18=
EXTT19=
PLAYORDER=
